# xmcd CD database file
#
# Track frame offsets:
#	182
#	23875
#	38297
#	54780
#	77610
#	88720
#	113457
#	131360
#	144240
#	168362
#	181695
#	200432
#
# Disc length: 2971 seconds
#
# Revision: 1
# Processed by: cddbd v1.5.2PL0 Copyright (c) Steve Scherf et al.
# Submitted via: CDex 1.70beta2
#
DISCID=7f0b990c
DTITLE=Various Artist - Hot Latin Nights - Salsa
DYEAR=1995
DGENRE=Salsa
TTITLE0=Margarta
TTITLE1=El Chirnguito
TTITLE2=Arrepiente, Chicha Bum, La Runita Y El Sabor
TTITLE3=La Paella - Que Vengan Los Rumberos
TTITLE4=Te Estas Jorobando
TTITLE5=No Me Reganes - Buscando Ambiente
TTITLE6=Quisiera Saber - Canta Mi Corazon - Ana Y Saoco
TTITLE7=La Pajarilla
TTITLE8=Papa Upa - El Mesias /El Patillero
TTITLE9=Johnny's Mambo (Dirty Dancing)
TTITLE10=Si Pudiera /Cuando Volvera /Bailame Como Quieras
TTITLE11=El Capitan /Ansias /Juanita Morey
EXTD=YEAR: 1995
EXTT0=
EXTT1=
EXTT2=
EXTT3=
EXTT4=
EXTT5=
EXTT6=
EXTT7=
EXTT8=
EXTT9=
EXTT10=
EXTT11=
PLAYORDER=
